{
    "asset" : {
        "generator" : "Khronos glTF Blender I/O v1.5.17",
        "version" : "2.0"
    },
    "scene" : 0,
    "scenes" : [
        {
            "name" : "Scene",
            "nodes" : [
                2
            ]
        }
    ],
    "nodes" : [
        {
            "mesh" : 0,
            "name" : "Icing",
            "scale" : [
                0.5154203772544861,
                0.5167689919471741,
                0.5232292413711548
            ]
        },
        {
            "children" : [
                0
            ],
            "mesh" : 1,
            "name" : "Donut",
            "scale" : [
                14.879240036010742,
                0.7439619898796082,
                14.879240036010742
            ],
            "translation" : [
                -0.0005038082599639893,
                0.001106110867112875,
                0.004888549447059631
            ]
        },
        {
            "children" : [
                1
            ],
            "name" : "Plate",
            "scale" : [
                0.06720772385597229,
                1.3441544771194458,
                0.06720772385597229
            ],
            "translation" : [
                0.0296097993850708,
                -0.00766042759642005,
                0.012125913985073566
            ]
        }
    ],
    "materials" : [
        {
            "doubleSided" : true,
            "name" : "Material.001",
            "pbrMetallicRoughness" : {
                "baseColorFactor" : [
                    0.2221449762582779,
                    0.20986425876617432,
                    0.8000000715255737,
                    1
                ],
                "metallicFactor" : 0,
                "roughnessFactor" : 0.2693501114845276
            }
        },
        {
            "doubleSided" : true,
            "name" : "Material.003",
            "pbrMetallicRoughness" : {
                "baseColorTexture" : {
                    "index" : 0
                },
                "metallicFactor" : 0,
                "roughnessFactor" : 0.4171716868877411
            }
        }
    ],
    "meshes" : [
        {
            "name" : "Torus.003",
            "primitives" : [
                {
                    "attributes" : {
                        "POSITION" : 0,
                        "NORMAL" : 1,
                        "TEXCOORD_0" : 2,
                        "COLOR_0" : 3
                    },
                    "indices" : 4,
                    "material" : 0
                }
            ]
        },
        {
            "name" : "Torus.001",
            "primitives" : [
                {
                    "attributes" : {
                        "POSITION" : 5,
                        "NORMAL" : 6,
                        "TEXCOORD_0" : 7
                    },
                    "indices" : 8,
                    "material" : 1
                }
            ]
        }
    ],
    "textures" : [
        {
            "sampler" : 0,
            "source" : 0
        }
    ],
    "images" : [
        {
            "bufferView" : 9,
            "mimeType" : "image/png",
            "name" : "Donut Texture"
        }
    ],
    "accessors" : [
        {
            "bufferView" : 0,
            "componentType" : 5126,
            "count" : 7400,
            "max" : [
                0.07824944704771042,
                0.04879161715507507,
                0.0811924934387207
            ],
            "min" : [
                -0.08334238827228546,
                0.014514540322124958,
                -0.07537330687046051
            ],
            "type" : "VEC3"
        },
        {
            "bufferView" : 1,
            "componentType" : 5126,
            "count" : 7400,
            "type" : "VEC3"
        },
        {
            "bufferView" : 2,
            "componentType" : 5126,
            "count" : 7400,
            "type" : "VEC2"
        },
        {
            "bufferView" : 3,
            "componentType" : 5123,
            "count" : 7400,
            "normalized" : true,
            "type" : "VEC4"
        },
        {
            "bufferView" : 4,
            "componentType" : 5123,
            "count" : 43968,
            "type" : "SCALAR"
        },
        {
            "bufferView" : 5,
            "componentType" : 5126,
            "count" : 9090,
            "max" : [
                0.03898446634411812,
                0.022224387153983116,
                0.04137743264436722
            ],
            "min" : [
                -0.04101553186774254,
                -0.007775614503771067,
                -0.03862255811691284
            ],
            "type" : "VEC3"
        },
        {
            "bufferView" : 6,
            "componentType" : 5126,
            "count" : 9090,
            "type" : "VEC3"
        },
        {
            "bufferView" : 7,
            "componentType" : 5126,
            "count" : 9090,
            "type" : "VEC2"
        },
        {
            "bufferView" : 8,
            "componentType" : 5123,
            "count" : 52800,
            "type" : "SCALAR"
        }
    ],
    "bufferViews" : [
        {
            "buffer" : 0,
            "byteLength" : 88800,
            "byteOffset" : 0
        },
        {
            "buffer" : 0,
            "byteLength" : 88800,
            "byteOffset" : 88800
        },
        {
            "buffer" : 0,
            "byteLength" : 59200,
            "byteOffset" : 177600
        },
        {
            "buffer" : 0,
            "byteLength" : 59200,
            "byteOffset" : 236800
        },
        {
            "buffer" : 0,
            "byteLength" : 87936,
            "byteOffset" : 296000
        },
        {
            "buffer" : 0,
            "byteLength" : 109080,
            "byteOffset" : 383936
        },
        {
            "buffer" : 0,
            "byteLength" : 109080,
            "byteOffset" : 493016
        },
        {
            "buffer" : 0,
            "byteLength" : 72720,
            "byteOffset" : 602096
        },
        {
            "buffer" : 0,
            "byteLength" : 105600,
            "byteOffset" : 674816
        },
        {
            "buffer" : 0,
            "byteLength" : 1212033,
            "byteOffset" : 780416
        }
    ],
    "samplers" : [
        {
            "magFilter" : 9729,
            "minFilter" : 9987
        }
    ],
    "buffers" : [
        {
            "byteLength" : 1992452,
            "uri" : "data:application/octet-stream;base64,"
        }
    ]
}
